<svg xmlns="http://www.w3.org/2000/svg" xmlns:xlink="http://www.w3.org/1999/xlink" viewBox="0,0,256,256" width="100px" height="100px"><g fill="none" fill-rule="nonzero" stroke="none" stroke-width="1" stroke-linecap="butt" stroke-linejoin="miter" stroke-miterlimit="10" stroke-dasharray="" stroke-dashoffset="0" font-family="none" font-weight="none" font-size="none" text-anchor="none" style="mix-blend-mode: normal"><g transform="scale(2.56,2.56)"><path d="M77,95.5c-11.304,0 -20.5,-9.196 -20.5,-20.5c0,-1.653 0.195,-3.278 0.583,-4.86l-7.139,-7.14h-5.646c-3.708,5.862 -10.182,9.5 -17.298,9.5c-11.304,0 -20.5,-9.196 -20.5,-20.5c0,-11.304 9.196,-20.5 20.5,-20.5c7.116,0 13.59,3.638 17.299,9.5h5.646l7.139,-7.14c-0.389,-1.582 -0.584,-3.207 -0.584,-4.86c0,-11.304 9.196,-20.5 20.5,-20.5c11.304,0 20.5,9.196 20.5,20.5c0,11.304 -9.196,20.5 -20.5,20.5c-1.363,0 -2.715,-0.135 -4.041,-0.403l-2.903,2.903l2.903,2.903c1.326,-0.268 2.678,-0.403 4.041,-0.403c11.304,0 20.5,9.196 20.5,20.5c0,11.304 -9.196,20.5 -20.5,20.5z" fill="#000000" opacity="0.35"></path><path d="M75,93.5c-11.304,0 -20.5,-9.196 -20.5,-20.5c0,-1.653 0.195,-3.278 0.583,-4.86l-7.139,-7.14h-5.646c-3.708,5.862 -10.182,9.5 -17.298,9.5c-11.304,0 -20.5,-9.196 -20.5,-20.5c0,-11.304 9.196,-20.5 20.5,-20.5c7.116,0 13.59,3.638 17.299,9.5h5.646l7.139,-7.14c-0.389,-1.582 -0.584,-3.207 -0.584,-4.86c0,-11.304 9.196,-20.5 20.5,-20.5c11.304,0 20.5,9.196 20.5,20.5c0,11.304 -9.196,20.5 -20.5,20.5c-1.363,0 -2.715,-0.135 -4.041,-0.403l-2.903,2.903l2.903,2.903c1.326,-0.268 2.678,-0.403 4.041,-0.403c11.304,0 20.5,9.196 20.5,20.5c0,11.304 -9.196,20.5 -20.5,20.5z" fill="#f2f2f2"></path><rect x="33.904" y="46.255" width="24.096" height="7.489" fill="#1f2937"></rect><rect x="4.18983" y="67.94447" transform="rotate(-42.791)" width="24.096" height="7.489" fill="#1f2937"></rect><rect x="1.137" y="70.40595" transform="rotate(-42.791)" width="7.489" height="24.096" fill="#1f2937"></rect><circle cx="24.753" cy="49.875" r="12.753" fill="#111827"></circle><circle cx="75.226" cy="27.029" r="12.753" fill="#111827"></circle><circle cx="75.098" cy="73.194" r="12.753" fill="#111827"></circle><path d="M75,14.5c7.361,0 13.236,6.362 12.425,13.888c-0.602,5.586 -5.014,10.17 -10.574,10.978c-2.656,0.386 -5.172,-0.076 -7.34,-1.141c-0.393,-0.193 -0.861,-0.133 -1.17,0.177l-10.892,10.891c-0.391,0.391 -0.391,1.024 0,1.414l10.891,10.892c0.309,0.309 0.778,0.37 1.17,0.177c2.168,-1.065 4.685,-1.527 7.341,-1.141c5.493,0.798 9.88,5.282 10.552,10.792c0.993,8.141 -5.847,14.977 -13.989,13.976c-5.624,-0.691 -10.15,-5.251 -10.823,-10.877c-0.333,-2.785 0.262,-5.407 1.502,-7.618c0.224,-0.4 0.175,-0.896 -0.149,-1.22l-12.393,-12.395c-0.188,-0.188 -0.442,-0.293 -0.707,-0.293h-12.967c-0.447,0 -0.825,0.301 -0.958,0.727c-1.714,5.489 -7.097,9.357 -13.286,8.7c-5.746,-0.61 -10.415,-5.253 -11.053,-10.995c-0.838,-7.545 5.045,-13.932 12.42,-13.932c5.603,0 10.332,3.691 11.919,8.771c0.133,0.427 0.512,0.729 0.96,0.729h12.965c0.265,0 0.52,-0.105 0.707,-0.293l12.395,-12.395c0.324,-0.324 0.373,-0.819 0.149,-1.218c-1.012,-1.803 -1.595,-3.879 -1.595,-6.094c0,-6.904 5.596,-12.5 12.5,-12.5M75,11.5c-8.547,0 -15.5,6.953 -15.5,15.5c0,2.149 0.446,4.259 1.304,6.211l-10.789,10.789h-10.732c-2.378,-5.695 -7.954,-9.5 -14.283,-9.5c-8.547,0 -15.5,6.953 -15.5,15.5c0,8.547 6.953,15.5 15.5,15.5c6.328,0 11.904,-3.805 14.283,-9.5h10.732l10.789,10.789c-0.858,1.952 -1.304,4.062 -1.304,6.211c0,8.547 6.953,15.5 15.5,15.5c8.547,0 15.5,-6.953 15.5,-15.5c0,-8.547 -6.953,-15.5 -15.5,-15.5c-1.881,0 -3.748,0.347 -5.501,1.014l-8.514,-8.514l8.514,-8.514c1.753,0.667 3.62,1.014 5.501,1.014c8.547,0 15.5,-6.953 15.5,-15.5c0,-8.547 -6.953,-15.5 -15.5,-15.5z" fill="#40396e"></path></g></g></svg>